<?xml version="1.0" encoding="UTF-8"?>
<svg width="240px" height="62px" viewBox="0 0 240 62" version="1.1" xmlns="http://www.w3.org/2000/svg" xmlns:xlink="http://www.w3.org/1999/xlink">
    <title>D582524A-E3EB-4201-B165-39832E4244B6</title>
    <g id="Page-1" stroke="none" stroke-width="1" fill="none" fill-rule="evenodd">
        <g id="HOME_1-Copy-2" transform="translate(-88.000000, -46.000000)">
            <g id="Group-67" transform="translate(88.000096, 46.000047)">
                <path d="M195.717688,33.1565422 L199.623699,33.1565422 C200.52146,33.1565422 201.293798,32.8453438 201.942128,32.2224754 C202.589515,31.598664 202.913915,30.801336 202.913915,29.8295481 C202.913915,28.8327701 202.589515,28.0227112 201.942128,27.3998428 C201.293798,26.7769745 200.52146,26.4653045 199.623699,26.4653045 L195.717688,26.4653045 L195.717688,33.1565422 Z M189.13867,46.6328487 L189.13867,21.1009037 L199.203581,21.1009037 C202.316037,21.1009037 204.808454,21.8270334 206.682717,23.2783497 C208.556037,24.7301375 209.492933,26.7708448 209.492933,29.3995285 C209.492933,31.4298625 209.026607,33.1004322 208.094898,34.4098232 C207.162717,35.7196857 205.920281,36.6315914 204.367589,37.1445972 L210.535919,46.6328487 L203.193051,46.6328487 L198.446332,38.1470334 L195.717688,38.1470334 L195.717688,46.6328487 L189.13867,46.6328487 Z" id="Fill-1" fill="#FEFEFE"></path>
                <polygon id="Fill-3" fill="#FEFEFE" points="214.930937 46.6326601 214.930937 21.1011866 221.397735 21.1011866 227.416124 29.79211 233.415181 21.1011866 239.882921 21.1011866 239.882921 46.6326601 233.303432 46.6326601 233.303432 30.8200079 227.416124 39.2869627 221.509483 30.8200079 221.509483 46.6326601"></polygon>
                <path d="M108.268666,36.4088016 L112.810277,36.4088016 L112.810277,40.6986248 C111.952124,41.0781925 110.783244,41.2682122 109.302693,41.2682122 C107.41287,41.2682122 105.907802,40.7316306 104.788902,39.657053 C103.66953,38.582947 103.109845,36.6525737 103.109845,33.8668762 C103.109845,28.9324951 105.249098,26.4650688 109.527134,26.4650688 C111.425915,26.4650688 113.311024,26.7427898 115.184344,27.2897446 L117.328784,22.74389 C114.504422,21.4745776 111.57397,20.8394499 108.538371,20.8394499 C107.002183,20.8394499 105.587644,21.0233399 104.295228,21.3901768 C103.002811,21.7574853 101.744815,22.3855403 100.520768,23.2752849 C99.2971925,24.1650295 98.3263477,25.5088409 97.6077622,27.3067191 C96.8896483,29.1050688 96.5308271,31.291945 96.5308271,33.8678193 C96.5308271,35.9391749 96.7741277,37.7672299 97.2612004,39.3519843 C97.748273,40.9367387 98.3819862,42.1937917 99.1628114,43.1231434 C99.943165,44.0524951 100.87676,44.8139882 101.963126,45.4066798 C103.049491,45.9988998 104.117468,46.395442 105.166112,46.5953635 C106.215699,46.7943418 107.338843,46.8943026 108.538371,46.8943026 C112.111024,46.8943026 115.285719,46.0837721 118.062458,44.4622397 L118.062458,31.5489194 L108.268666,31.5489194 L108.268666,36.4088016 Z" id="Fill-5" fill="#F8AF00"></path>
                <polygon id="Fill-7" fill="#FEFEFE" points="161.065413 31.6237014 152.133075 31.6237014 152.133075 26.4653517 160.204902 26.4653517 162.735982 21.1009509 145.554057 21.1009509 145.554057 46.6328959 152.133075 46.6328959 152.133075 36.9881022 158.53386 36.9881022"></polygon>
                <polygon id="Fill-9" fill="#FEFEFE" points="173.476949 36.5397878 180.436477 36.5397878 182.967558 31.175387 173.476949 31.175387 173.476949 26.4649745 181.843471 26.4649745 184.374552 21.1010452 166.89746 21.1010452 166.89746 46.6325187 184.691409 46.6325187 184.691409 41.2681179 173.476949 41.2681179"></polygon>
                <polygon id="Fill-11" fill="#F8AF00" points="130.095464 36.5397878 137.054992 36.5397878 139.586073 31.175387 130.095464 31.175387 130.095464 26.4649745 138.461986 26.4649745 140.993067 21.1010452 123.515974 21.1010452 123.515974 46.6325187 141.310395 46.6325187 141.310395 41.2681179 130.095464 41.2681179"></polygon>
                <path d="M80.9658133,26.6357092 C77.0423556,26.6357092 73.8502141,29.8278507 73.8502141,33.7508369 C73.8502141,37.6747662 77.0423556,40.8664361 80.9658133,40.8664361 C84.8887996,40.8664361 88.0804695,37.6747662 88.0804695,33.7508369 C88.0804695,29.8278507 84.8887996,26.6357092 80.9658133,26.6357092 M80.9658133,46.8885972 C73.7214911,46.8885972 67.828053,40.9951591 67.828053,33.7508369 C67.828053,26.5074578 73.7214911,20.6135481 80.9658133,20.6135481 C88.209664,20.6135481 94.1026306,26.5074578 94.1026306,33.7508369 C94.1026306,40.9951591 88.209664,46.8885972 80.9658133,46.8885972" id="Fill-13" fill="#F8AF00"></path>
                <path d="M64.5614125,39.2088802 C63.3260491,40.2424361 61.737051,40.8667191 60.0042416,40.8667191 C56.0807838,40.8667191 52.8891139,37.6745776 52.8891139,33.7511198 C52.8891139,29.8276621 56.0807838,26.6355206 60.0042416,26.6355206 C61.737051,26.6355206 63.3260491,27.2598035 64.5614125,28.2933595 C65.3031021,26.3794892 66.4220019,24.6528094 67.828053,23.2047937 C65.6411768,21.5776031 62.9332789,20.6133595 60.0042416,20.6133595 C52.7603909,20.6133595 46.8669528,26.5072692 46.8669528,33.7511198 C46.8669528,40.9949705 52.7603909,46.8888802 60.0042416,46.8888802 C62.9332789,46.8888802 65.6411768,45.924165 67.828053,44.297446 C66.4220019,42.8494303 65.3031021,41.123222 64.5614125,39.2088802" id="Fill-15" fill="#F8AF00"></path>
                <path d="M16.6468978,40.2538939 C14.5100019,36.5652495 15.8000609,31.7223418 19.4887053,29.585446 C-0.286068805,41.0408487 8.05404907,53.9230491 8.20163257,54.1474892 C15.54733,60.3884322 26.3558172,61.6959371 35.1419862,56.6064283 L39.4907485,54.086664 C39.4907485,54.086664 27.6317308,59.2162515 16.6468978,40.2538939" id="Fill-17" fill="#EE7D00"></path>
                <path d="M11.6622062,16.0752849 C0.516115871,22.5321807 -3.32011203,36.9345383 3.13678385,48.0806287 C4.50369937,50.4405501 6.22849308,52.4713556 8.20177402,54.148055 C8.05466204,53.9240864 -0.286398864,41.0414145 19.4888467,29.5855403 C26.1385913,25.7332809 32.7883359,21.8810216 39.4380805,18.0287623 L39.4116758,0 L11.6622062,16.0752849 Z" id="Fill-19" fill="#FEFEFE"></path>
                <path d="M16.6468978,40.2538939 C27.6317308,59.2162515 39.4907485,54.086664 39.4907485,54.086664 L39.4643438,36.0579018 L27.3153457,43.0957014 C23.6267013,45.2325972 18.7837937,43.9425383 16.6468978,40.2538939" id="Fill-21" fill="#F8AF00"></path>
                <polygon id="Fill-23" fill="#FEFEFE" points="46.6222848 59.1196857 46.6222848 51.9743811 47.6209489 51.9743811 47.6209489 58.1884479 51.1676679 58.1884479 51.1676679 59.1196857"></polygon>
                <path d="M52.8940176,56.1225619 L55.640108,56.1225619 C55.6264341,55.9443301 55.5953143,55.7745855 55.5486345,55.6123851 C55.5014833,55.4501847 55.4298133,55.2856267 55.3340962,55.1182397 C55.2383791,54.9503811 55.0992829,54.816943 54.918222,54.7179253 C54.7371611,54.6184361 54.5207367,54.5689273 54.2694204,54.5689273 C53.8195972,54.5689273 53.4895383,54.6849194 53.2783005,54.9164322 C53.0675343,55.1484165 52.9392829,55.5506169 52.8940176,56.1225619 M51.9109135,56.5101454 C51.9109135,54.630224 52.6969253,53.6900275 54.2694204,53.6900275 L54.2797937,53.6900275 C54.9950785,53.6900275 55.5660805,53.9234263 55.9932711,54.390224 C56.4204616,54.8574931 56.6340569,55.4831906 56.6340569,56.2668448 C56.6340569,56.5219332 56.6232121,56.7671198 56.6024656,57.0009902 L52.9095776,57.0009902 C53.0279273,57.9180825 53.5300884,58.3768644 54.4160609,58.3768644 C55.1379469,58.3768644 55.7532711,58.2424833 56.2625049,57.974664 L56.2625049,58.8653517 C55.711778,59.0978075 55.0889096,59.2137996 54.3953143,59.2137996 L54.3637229,59.2137996 C54.050167,59.2137996 53.7606581,59.174664 53.4951964,59.0959214 C53.2302062,59.0171788 52.9727603,58.8870413 52.721444,58.7055088 C52.4710707,58.5239764 52.2725638,58.2448409 52.1278094,57.8699882 C51.9825835,57.4941925 51.9109135,57.0410688 51.9109135,56.5101454" id="Fill-25" fill="#FEFEFE"></path>
                <path d="M62.0557937,58.4964401 C61.6319037,58.0249273 61.4201945,57.3417053 61.4201945,56.4463026 C61.4201945,55.5513713 61.6319037,54.8681493 62.0557937,54.3971081 C62.4792121,53.9255953 63.0973654,53.6898389 63.9102534,53.6898389 C64.4539076,53.6898389 64.9787013,53.7893281 65.4846345,53.987835 L65.4846345,54.9200157 C64.9999194,54.6856739 64.5100176,54.5687387 64.0149292,54.5687387 L63.9937112,54.5687387 C63.5019233,54.5687387 63.1166974,54.6955756 62.8380334,54.948778 C62.5584263,55.2029234 62.41933,55.7017839 62.41933,56.4463026 C62.41933,56.8419018 62.4598801,57.1696031 62.5423948,57.4303497 C62.6244381,57.6906248 62.7460884,57.883945 62.9082888,58.0098389 C63.0704892,58.1357328 63.2345756,58.2196621 63.4000766,58.2616267 C63.5660491,58.3035914 63.7636129,58.3243379 63.9937112,58.3243379 C64.506717,58.3243379 65.00322,58.2111749 65.4846345,57.9834342 L65.4846345,58.9085422 C64.9787013,59.1051631 64.4539076,59.2032377 63.9102534,59.2032377 C63.0973654,59.2032377 62.4792121,58.9674813 62.0557937,58.4964401" id="Fill-27" fill="#FEFEFE"></path>
                <path d="M67.4692318,55.4664047 C67.3909607,55.7243222 67.3513536,56.0529666 67.3513536,56.4518664 C67.3513536,56.8507662 67.3909607,57.1794106 67.4692318,57.4377996 C67.5475029,57.6961886 67.6649096,57.8876228 67.8219233,58.0121022 C67.9784656,58.1375246 68.1368939,58.2205108 68.2967367,58.2624754 C68.457051,58.3039686 68.6513143,58.3247151 68.879055,58.3247151 C69.1072671,58.3247151 69.3015304,58.3039686 69.4613732,58.2624754 C69.6216876,58.2205108 69.7801159,58.1375246 69.9366581,58.0121022 C70.0927288,57.8876228 70.210607,57.6961886 70.2888782,57.4377996 C70.3671493,57.1794106 70.4062848,56.8507662 70.4062848,56.4518664 C70.4062848,56.0529666 70.3671493,55.7243222 70.2888782,55.4664047 C70.210607,55.2080157 70.0927288,55.01611 69.9366581,54.8911591 C69.7801159,54.7666798 69.6216876,54.683222 69.4613732,54.6417289 C69.3015304,54.6002358 69.1072671,54.5794892 68.879055,54.5794892 C68.6513143,54.5794892 68.457051,54.6002358 68.2967367,54.6417289 C68.1368939,54.683222 67.9784656,54.7666798 67.8219233,54.8911591 C67.6649096,55.01611 67.5475029,55.2080157 67.4692318,55.4664047 M66.5785442,57.8324558 C66.4281316,57.452888 66.3526895,56.9931631 66.3526895,56.4518664 C66.3526895,55.9105697 66.4281316,55.4508448 66.5785442,55.0717485 C66.7289567,54.6921807 66.9340648,54.4083301 67.1933968,54.219725 C67.4522573,54.0306483 67.7172475,53.8972102 67.9893104,53.8184676 C68.2604302,53.739725 68.5570117,53.7001179 68.879055,53.7001179 C69.2010982,53.7001179 69.4976797,53.739725 69.7692711,53.8184676 C70.0408624,53.8972102 70.3058526,54.0306483 70.5651846,54.219725 C70.8240451,54.4083301 71.0291532,54.6921807 71.1795658,55.0717485 C71.3299783,55.4508448 71.4058919,55.9105697 71.4058919,56.4518664 C71.4058919,56.9931631 71.3299783,57.452888 71.1795658,57.8324558 C71.0291532,58.2115521 70.8240451,58.4954028 70.5651846,58.6844794 C70.3058526,58.8730845 70.0408624,59.0069941 69.7692711,59.0852652 C69.4976797,59.1640079 69.2010982,59.2031434 68.879055,59.2031434 C68.5570117,59.2031434 68.2604302,59.1640079 67.9893104,59.0852652 C67.7172475,59.0069941 67.4522573,58.8730845 67.1933968,58.6844794 C66.9340648,58.4954028 66.7289567,58.2115521 66.5785442,57.8324558" id="Fill-29" fill="#FEFEFE"></path>
                <path d="M72.7497976,59.1196857 L72.7497976,54.2131238 C73.4641394,53.8576031 74.2044145,53.6793713 74.9706227,53.6793713 C75.5501119,53.6793713 76.0263398,53.8137525 76.399778,54.0825147 C77.0721552,53.8137525 77.7261434,53.6793713 78.3603281,53.6793713 C79.0355343,53.6793713 79.5626856,53.8557171 79.9403673,54.2079371 C80.3185206,54.5601572 80.5075972,55.051945 80.5075972,55.6828291 L80.5075972,59.1196857 L79.5292082,59.1196857 L79.5292082,55.6149312 C79.5292082,55.3084479 79.4537662,55.0604322 79.3038251,54.8722986 C79.1534125,54.6836935 78.8596601,54.5898625 78.4230393,54.5898625 C77.9515265,54.5898625 77.4734125,54.6893517 76.9877544,54.8878585 C77.0707406,55.1146562 77.1122337,55.3688016 77.1122337,55.6517092 L77.1122337,55.6828291 L77.1122337,59.1196857 L76.1343163,59.1196857 L76.1343163,55.6253045 C76.1343163,55.3117485 76.05133,55.0637328 75.8853575,54.8826719 C75.719385,54.7011395 75.3902691,54.610609 74.8975383,54.610609 C74.5160844,54.610609 74.1266149,54.664833 73.7281866,54.7728094 L73.7281866,59.1196857 L72.7497976,59.1196857 Z" id="Fill-31" fill="#FEFEFE"></path>
                <path d="M83.0240609,58.1101297 C83.3941984,58.252998 83.7728231,58.324668 84.1608782,58.324668 C84.3815461,58.324668 84.5687367,58.3034499 84.7248074,58.2614853 C84.8794636,58.2195206 85.0327053,58.1393635 85.1821748,58.0214853 C85.3330589,57.902664 85.447165,57.7173595 85.5259076,57.4636857 C85.6041787,57.2114263 85.6437858,56.8912692 85.6437858,56.5041572 C85.6437858,56.0892259 85.6041787,55.7445501 85.5259076,55.4710727 C85.447165,55.1971238 85.3344734,54.9976739 85.188776,54.8722515 C85.041664,54.7463576 84.8959666,54.6614853 84.7526267,54.6157485 C84.6092868,54.5704833 84.4461434,54.5478507 84.2613104,54.5478507 C83.436163,54.5478507 83.0240609,54.8147269 83.0240609,55.3480079 L83.0240609,58.1101297 Z M82.0456719,61.1542161 L82.0456719,55.4107191 C82.0456719,55.2956699 82.0560451,55.1820354 82.0763202,55.0684008 C82.0980098,54.9552377 82.1508192,54.8109548 82.236163,54.6369666 C82.3205638,54.4625069 82.437499,54.3087937 82.5831964,54.1767701 C82.7298369,54.0438035 82.9495618,53.9296974 83.2418998,53.8339804 C83.5347092,53.7382633 83.8746699,53.6896974 84.2613104,53.6896974 C84.4584027,53.6896974 84.652666,53.7076149 84.8426856,53.7420354 C85.0327053,53.7773988 85.2406424,53.8556699 85.4650825,53.9773202 C85.689051,54.0999136 85.8828428,54.2588134 86.0478723,54.4540196 C86.2114872,54.6487544 86.3482259,54.9236464 86.4571453,55.2772809 C86.5674793,55.631387 86.6217033,56.0401886 86.6217033,56.5041572 C86.6217033,57.0341375 86.5500334,57.4867898 86.4052789,57.8616424 C86.260996,58.2364951 86.0615461,58.5142161 85.8069292,58.69622 C85.5523123,58.8772809 85.2939233,59.006947 85.0312907,59.0856896 C84.7677151,59.1639607 84.4777347,59.2030963 84.1608782,59.2030963 C83.7652789,59.2030963 83.3866542,59.1512299 83.0240609,59.046554 L83.0240609,61.1542161 L82.0456719,61.1542161 Z" id="Fill-33" fill="#FEFEFE"></path>
                <path d="M87.3761237,54.610609 L87.3761237,53.7736739 L88.3068899,53.7736739 L88.3068899,52.1889194 L89.2852789,52.1889194 L89.2852789,53.7736739 L90.707833,53.7736739 L90.707833,54.610609 L89.2852789,54.610609 L89.2852789,57.7004322 C89.2852789,58.116778 89.5479115,58.3242436 90.0745913,58.3242436 L90.0854361,58.3242436 C90.3296797,58.3242436 90.5366738,58.2723772 90.707833,58.1681729 L90.707833,59.0550884 C90.4635893,59.1536346 90.2193457,59.2031434 89.9751021,59.2031434 L89.9491689,59.2031434 C89.8199744,59.2031434 89.6827642,59.1875835 89.5361237,59.1564637 C89.3899548,59.1248723 89.2140805,59.0631041 89.0099155,58.9711591 C88.806222,58.8787426 88.6383634,58.7188998 88.5058683,58.4906876 C88.3729017,58.262947 88.3068899,57.9800393 88.3068899,57.6429077 L88.3068899,54.610609 L87.3761237,54.610609 Z" id="Fill-35" fill="#FEFEFE"></path>
                <path d="M92.7918723,55.4664047 C92.7131296,55.7243222 92.6739941,56.0529666 92.6739941,56.4518664 C92.6739941,56.8507662 92.7131296,57.1794106 92.7918723,57.4377996 C92.8696719,57.6961886 92.9875501,57.8876228 93.1440923,58.0121022 C93.3006345,58.1375246 93.4590628,58.2205108 93.6193772,58.2624754 C93.7796915,58.3039686 93.9734833,58.3247151 94.2016954,58.3247151 C94.4299076,58.3247151 94.6236994,58.3039686 94.7840137,58.2624754 C94.943385,58.2205108 95.1018133,58.1375246 95.2592986,58.0121022 C95.4158408,57.8876228 95.532776,57.6961886 95.6115186,57.4377996 C95.6897897,57.1794106 95.7289253,56.8507662 95.7289253,56.4518664 C95.7289253,56.0529666 95.6897897,55.7243222 95.6115186,55.4664047 C95.532776,55.2080157 95.4158408,55.01611 95.2592986,54.8911591 C95.1018133,54.7666798 94.943385,54.683222 94.7840137,54.6417289 C94.6236994,54.6002358 94.4299076,54.5794892 94.2016954,54.5794892 C93.9734833,54.5794892 93.7796915,54.6002358 93.6193772,54.6417289 C93.4590628,54.683222 93.3006345,54.7666798 93.1440923,54.8911591 C92.9875501,55.01611 92.8696719,55.2080157 92.7918723,55.4664047 M91.9007131,57.8324558 C91.7503005,57.452888 91.67533,56.9931631 91.67533,56.4518664 C91.67533,55.9105697 91.7503005,55.4508448 91.9007131,55.0717485 C92.0511257,54.6921807 92.2562337,54.4083301 92.5155658,54.219725 C92.7744263,54.0306483 93.0403595,53.8972102 93.3114793,53.8184676 C93.5825992,53.739725 93.8796522,53.7001179 94.2016954,53.7001179 C94.5237387,53.7001179 94.8203202,53.739725 95.0919115,53.8184676 C95.3630314,53.8972102 95.6280216,54.0306483 95.8868821,54.219725 C96.1462141,54.4083301 96.3517937,54.6921807 96.5017347,55.0717485 C96.6526188,55.4508448 96.7280609,55.9105697 96.7280609,56.4518664 C96.7280609,56.9931631 96.6526188,57.452888 96.5017347,57.8324558 C96.3517937,58.2115521 96.1462141,58.4954028 95.8868821,58.6844794 C95.6280216,58.8730845 95.3630314,59.0069941 95.0919115,59.0852652 C94.8203202,59.1640079 94.5237387,59.2031434 94.2016954,59.2031434 C93.8796522,59.2031434 93.5825992,59.1640079 93.3114793,59.0852652 C93.0403595,59.0069941 92.7744263,58.8730845 92.5155658,58.6844794 C92.2562337,58.4954028 92.0511257,58.2115521 91.9007131,57.8324558" id="Fill-37" fill="#FEFEFE"></path>
                <path d="M98.1066964,59.1196385 L99.8550954,59.1196385 L99.8550954,53.7736267 L98.1066964,53.7736267 L98.1066964,59.1196385 Z M98.0519273,52.9470648 L99.9123924,52.9470648 L99.9123924,51.9116228 L98.0519273,51.9116228 L98.0519273,52.9470648 Z" id="Fill-39" fill="#FEFEFE"></path>
                <path d="M100.661609,59.1196857 L100.661609,54.2234971 C101.554654,53.8679764 102.422709,53.6897446 103.266717,53.6897446 L103.266717,54.5898625 C102.734851,54.5964637 102.192611,54.6714342 101.639998,54.8147741 L101.639998,59.1196857 L100.661609,59.1196857 Z" id="Fill-41" fill="#FEFEFE"></path>
                <path d="M108.738104,56.3790177 C108.738104,56.7915914 108.776768,57.1339096 108.855511,57.406444 C108.933782,57.6785069 109.046002,57.8774853 109.191699,58.0019646 C109.337868,58.1269155 109.482623,58.2117878 109.62502,58.2565815 C109.767888,58.3018468 109.93669,58.3244794 110.131424,58.3244794 C110.953271,58.3244794 111.362073,58.0590177 111.358326,57.5285658 L111.358326,54.7923772 C110.99665,54.6433792 110.615668,54.5688802 110.214882,54.5688802 C110.002701,54.5688802 109.817868,54.5896267 109.65944,54.6311198 C109.501012,54.672613 109.347299,54.7522986 109.197358,54.8701768 C109.047416,54.988055 108.933782,55.1733595 108.855511,55.4246758 C108.776768,55.6759921 108.738104,55.9942633 108.738104,56.3790177 M107.759715,56.3790177 C107.759715,55.8490373 107.8328,55.3982711 107.979912,55.0267191 C108.126081,54.655167 108.326002,54.3769745 108.579204,54.1921415 C108.831935,54.0073084 109.091267,53.8771709 109.356729,53.8022004 C109.622191,53.7277014 109.907927,53.6899804 110.214882,53.6899804 C110.601523,53.6899804 110.982505,53.7432613 111.358301,53.8488802 L111.358301,51.7492338 L112.33669,51.7492338 L112.33669,57.4743418 C112.33669,57.589391 112.324902,57.7034971 112.302269,57.8166601 C112.280108,57.9298232 112.226356,58.0750491 112.14054,58.2528094 C112.055196,58.4300982 111.939204,58.5852259 111.793507,58.7172495 C111.646866,58.8497446 111.429499,58.9638507 111.140462,59.0595678 C110.850481,59.1552849 110.514764,59.2033792 110.131424,59.2033792 C109.925845,59.2033792 109.727809,59.1859332 109.537318,59.1510413 C109.347299,59.1161493 109.139361,59.0378782 108.91445,58.9152849 C108.689067,58.7936346 108.496218,58.6347348 108.335432,58.4395285 C108.174646,58.2447937 108.039322,57.9699018 107.927102,57.6162672 C107.815354,57.2621611 107.759715,56.8500589 107.759715,56.3790177" id="Fill-42" fill="#FEFEFE"></path>
                <path d="M114.544312,56.1225619 L117.290403,56.1225619 C117.276257,55.9443301 117.246081,55.7745855 117.198458,55.6123851 C117.151778,55.4501847 117.080108,55.2856267 116.984391,55.1182397 C116.888202,54.9503811 116.750049,54.816943 116.568517,54.7179253 C116.386984,54.6184361 116.171031,54.5689273 115.919715,54.5689273 C115.469892,54.5689273 115.139833,54.6849194 114.928595,54.9164322 C114.717829,55.1484165 114.589106,55.5506169 114.544312,56.1225619 M113.560737,56.5101454 C113.560737,54.630224 114.34722,53.6900275 115.919715,53.6900275 L115.930088,53.6900275 C116.645373,53.6900275 117.216375,53.9234263 117.643566,54.390224 C118.070756,54.8574931 118.28388,55.4831906 118.28388,56.2668448 C118.28388,56.5219332 118.273978,56.7671198 118.25276,57.0009902 L114.559872,57.0009902 C114.678693,57.9180825 115.180383,58.3768644 116.066356,58.3768644 C116.78777,58.3768644 117.403566,58.2424833 117.9128,57.974664 L117.9128,58.8653517 C117.362073,59.0978075 116.739204,59.2137996 116.045609,59.2137996 L116.014489,59.2137996 C115.69999,59.2137996 115.410481,59.174664 115.145491,59.0959214 C114.880501,59.0171788 114.623055,58.8870413 114.371739,58.7055088 C114.120894,58.5239764 113.92333,58.2448409 113.778104,57.8699882 C113.632878,57.4941925 113.560737,57.0410688 113.560737,56.5101454" id="Fill-43" fill="#FEFEFE"></path>
                <path d="M119.309845,55.2835992 C119.309845,54.8413202 119.46733,54.465053 119.783244,54.1547976 C120.098686,53.8450138 120.581043,53.6898861 121.229845,53.6898861 C121.713145,53.6898861 122.189845,53.8068212 122.659471,54.0406916 L122.659471,54.887057 C122.196917,54.6748762 121.760297,54.5687859 121.350081,54.5687859 C120.641868,54.5687859 120.288234,54.7965265 120.288234,55.2520079 C120.288234,55.4014774 120.382065,55.5259568 120.57067,55.6249745 C120.758803,55.7244637 120.98513,55.811222 121.250591,55.885721 C121.515581,55.9606916 121.781043,56.051222 122.046505,56.1573124 C122.31291,56.2634028 122.540179,56.4416346 122.728784,56.6915363 C122.918332,56.9423811 123.013578,57.2516935 123.013578,57.6204165 C123.013578,58.0518507 122.851377,58.4234028 122.528391,58.7350727 C122.204462,59.0472141 121.703715,59.2032849 121.02568,59.2032849 C120.453735,59.2032849 119.938843,59.0778625 119.482418,58.8274892 L119.482418,57.933501 C119.945915,58.1942475 120.439589,58.3243851 120.962969,58.3243851 L120.983715,58.3243851 C121.325562,58.3243851 121.585837,58.2630884 121.765955,58.1395521 C121.94513,58.0160157 122.035189,57.8585305 122.035189,57.6670963 C122.035189,57.4478428 121.942301,57.2714971 121.75511,57.1380589 C121.568862,57.0036778 121.341593,56.8994735 121.072831,56.8249745 C120.804069,56.7500039 120.536721,56.6670177 120.269845,56.5746012 C120.002969,56.4821847 119.776171,56.3294145 119.589923,56.1153477 C119.403204,55.9017525 119.309845,55.6245029 119.309845,55.2835992" id="Fill-44" fill="#FEFEFE"></path>
                <path d="M127.595409,55.2835992 C127.595409,54.8413202 127.752894,54.465053 128.068807,54.1547976 C128.384249,53.8450138 128.866607,53.6898861 129.515409,53.6898861 C129.998709,53.6898861 130.475409,53.8068212 130.945035,54.0406916 L130.945035,54.887057 C130.482481,54.6748762 130.04586,54.5687859 129.635644,54.5687859 C128.927432,54.5687859 128.573798,54.7965265 128.573798,55.2520079 C128.573798,55.4014774 128.667629,55.5259568 128.856234,55.6249745 C129.044367,55.7244637 129.270693,55.811222 129.536155,55.885721 C129.801145,55.9606916 130.066607,56.051222 130.332069,56.1573124 C130.598473,56.2634028 130.825743,56.4416346 131.014348,56.6915363 C131.203896,56.9423811 131.299141,57.2516935 131.299141,57.6204165 C131.299141,58.0518507 131.136941,58.4234028 130.813483,58.7350727 C130.490025,59.0472141 129.989279,59.2032849 129.311244,59.2032849 C128.739299,59.2032849 128.224407,59.0778625 127.767982,58.8274892 L127.767982,57.933501 C128.231479,58.1942475 128.725153,58.3243851 129.248532,58.3243851 L129.269279,58.3243851 C129.611126,58.3243851 129.871401,58.2630884 130.051519,58.1395521 C130.230693,58.0160157 130.320752,57.8585305 130.320752,57.6670963 C130.320752,57.4478428 130.227864,57.2714971 130.040674,57.1380589 C129.854426,57.0036778 129.627157,56.8994735 129.358395,56.8249745 C129.089633,56.7500039 128.822285,56.6670177 128.555409,56.5746012 C128.288532,56.4821847 128.061735,56.3294145 127.875487,56.1153477 C127.688768,55.9017525 127.595409,55.6245029 127.595409,55.2835992" id="Fill-45" fill="#FEFEFE"></path>
                <path d="M133.312737,56.1225619 L136.058827,56.1225619 C136.045153,55.9443301 136.014505,55.7745855 135.966882,55.6123851 C135.920202,55.4501847 135.848532,55.2856267 135.752815,55.1182397 C135.656627,54.9503811 135.518473,54.816943 135.337413,54.7179253 C135.155409,54.6184361 134.939456,54.5689273 134.688139,54.5689273 C134.238316,54.5689273 133.908257,54.6849194 133.697491,54.9164322 C133.486253,55.1484165 133.358002,55.5506169 133.312737,56.1225619 M132.329633,56.5101454 C132.329633,54.630224 133.115644,53.6900275 134.688139,53.6900275 L134.698513,53.6900275 C135.414269,53.6900275 135.9848,53.9234263 136.41199,54.390224 C136.839181,54.8574931 137.052776,55.4831906 137.052776,56.2668448 C137.052776,56.5219332 137.042403,56.7671198 137.021656,57.0009902 L133.328768,57.0009902 C133.447118,57.9180825 133.948807,58.3768644 134.83478,58.3768644 C135.556666,58.3768644 136.172462,58.2424833 136.681224,57.974664 L136.681224,58.8653517 C136.130497,59.0978075 135.507629,59.2137996 134.814033,59.2137996 L134.782914,59.2137996 C134.468414,59.2137996 134.178906,59.174664 133.913915,59.0959214 C133.649397,59.0171788 133.391479,58.8870413 133.140635,58.7055088 C132.88979,58.5239764 132.691754,58.2448409 132.546528,57.8699882 C132.401774,57.4941925 132.329633,57.0410688 132.329633,56.5101454" id="Fill-46" fill="#FEFEFE"></path>
                <path d="M138.312847,59.1196857 L138.312847,54.2234971 C139.205892,53.8679764 140.073475,53.6897446 140.917483,53.6897446 L140.917483,54.5898625 C140.386088,54.5964637 139.843849,54.6714342 139.291236,54.8147741 L139.291236,59.1196857 L138.312847,59.1196857 Z" id="Fill-47" fill="#FEFEFE"></path>
                <path d="M142.047652,59.1196857 L142.047652,54.2234971 C142.940226,53.8679764 143.808281,53.6897446 144.652289,53.6897446 L144.652289,54.5898625 C144.120894,54.5964637 143.578654,54.6714342 143.026041,54.8147741 L143.026041,59.1196857 L142.047652,59.1196857 Z" id="Fill-48" fill="#FEFEFE"></path>
                <path d="M145.678395,56.8705697 L145.678395,53.7736739 L146.656784,53.7736739 L146.656784,56.9474263 C146.656784,57.432613 146.760045,57.7886051 146.967039,58.0154028 C147.173562,58.2422004 147.498906,58.355835 147.940242,58.355835 C148.382521,58.355835 148.705035,58.2431434 148.908729,58.0182318 C149.112894,57.7933202 149.214269,57.4359136 149.214269,56.9474263 L149.214269,53.7736739 L150.192658,53.7736739 L150.192658,56.8705697 C150.192658,57.6132024 149.995566,58.189391 149.601381,58.5991356 C149.207668,59.0088802 148.654112,59.2135167 147.940242,59.2135167 C147.226843,59.2135167 146.671872,59.0088802 146.274859,58.5991356 C145.87643,58.189391 145.678395,57.6132024 145.678395,56.8705697" id="Fill-49" fill="#FEFEFE"></path>
                <path d="M151.698717,59.1196857 L151.698717,54.2234971 C152.591291,53.8679764 153.459346,53.6897446 154.303354,53.6897446 L154.303354,54.5898625 C153.771959,54.5964637 153.229719,54.6714342 152.677106,54.8147741 L152.677106,59.1196857 L151.698717,59.1196857 Z" id="Fill-50" fill="#FEFEFE"></path>
                <path d="M155.447735,59.1196385 L157.196135,59.1196385 L157.196135,53.7736267 L155.447735,53.7736267 L155.447735,59.1196385 Z M155.392124,52.9470648 L157.252589,52.9470648 L157.252589,51.9116228 L155.392124,51.9116228 L155.392124,52.9470648 Z" id="Fill-51" fill="#FEFEFE"></path>
                <path d="M158.865098,56.1225619 L161.611189,56.1225619 C161.597515,55.9443301 161.566866,55.7745855 161.519244,55.6123851 C161.472564,55.4501847 161.400894,55.2856267 161.305177,55.1182397 C161.208988,54.9503811 161.070835,54.816943 160.889303,54.7179253 C160.70777,54.6184361 160.491817,54.5689273 160.240501,54.5689273 C159.790678,54.5689273 159.460619,54.6849194 159.249853,54.9164322 C159.038615,55.1484165 158.910363,55.5506169 158.865098,56.1225619 M157.881994,56.5101454 C157.881994,54.630224 158.668006,53.6900275 160.240501,53.6900275 L160.250874,53.6900275 C160.966159,53.6900275 161.537161,53.9234263 161.964352,54.390224 C162.391542,54.8574931 162.605137,55.4831906 162.605137,56.2668448 C162.605137,56.5219332 162.594764,56.7671198 162.574018,57.0009902 L158.88113,57.0009902 C158.999479,57.9180825 159.501169,58.3768644 160.387141,58.3768644 C161.109027,58.3768644 161.724823,58.2424833 162.233585,57.974664 L162.233585,58.8653517 C161.682859,59.0978075 161.05999,59.2137996 160.366395,59.2137996 L160.335275,59.2137996 C160.020776,59.2137996 159.731267,59.174664 159.466277,59.0959214 C159.201758,59.0171788 158.943841,58.8870413 158.692996,58.7055088 C158.442151,58.5239764 158.244116,58.2448409 158.09889,57.8699882 C157.953664,57.4941925 157.881994,57.0410688 157.881994,56.5101454" id="Fill-52" fill="#FEFEFE"></path>
                <path d="M163.865963,59.1196857 L163.865963,54.2234971 C164.759008,53.8679764 165.626591,53.6897446 166.470599,53.6897446 L166.470599,54.5898625 C165.939204,54.5964637 165.396965,54.6714342 164.844352,54.8147741 L164.844352,59.1196857 L163.865963,59.1196857 Z" id="Fill-53" fill="#FEFEFE"></path>
                <path d="M167.276132,55.2835992 C167.276132,54.8413202 167.433617,54.465053 167.74953,54.1547976 C168.064972,53.8450138 168.54733,53.6898861 169.196132,53.6898861 C169.679432,53.6898861 170.156132,53.8068212 170.625758,54.0406916 L170.625758,54.887057 C170.163204,54.6748762 169.726583,54.5687859 169.316367,54.5687859 C168.608155,54.5687859 168.254521,54.7965265 168.254521,55.2520079 C168.254521,55.4014774 168.348352,55.5259568 168.536957,55.6249745 C168.72509,55.7244637 168.951416,55.811222 169.216878,55.885721 C169.481868,55.9606916 169.74733,56.051222 170.012792,56.1573124 C170.279196,56.2634028 170.506466,56.4416346 170.695071,56.6915363 C170.884619,56.9423811 170.979864,57.2516935 170.979864,57.6204165 C170.979864,58.0518507 170.817664,58.4234028 170.494678,58.7350727 C170.170748,59.0472141 169.670002,59.2032849 168.991967,59.2032849 C168.420022,59.2032849 167.90513,59.0778625 167.448705,58.8274892 L167.448705,57.933501 C167.912202,58.1942475 168.405876,58.3243851 168.929255,58.3243851 L168.950002,58.3243851 C169.291849,58.3243851 169.552124,58.2630884 169.732242,58.1395521 C169.911416,58.0160157 170.001475,57.8585305 170.001475,57.6670963 C170.001475,57.4478428 169.908587,57.2714971 169.721397,57.1380589 C169.535149,57.0036778 169.30788,56.8994735 169.039118,56.8249745 C168.770356,56.7500039 168.503008,56.6670177 168.236132,56.5746012 C167.969255,56.4821847 167.742458,56.3294145 167.55621,56.1153477 C167.369491,55.9017525 167.276132,55.6245029 167.276132,55.2835992" id="Fill-54" fill="#FEFEFE"></path>
                <path d="M176.686348,56.1225619 L179.432438,56.1225619 C179.418764,55.9443301 179.388116,55.7745855 179.340965,55.6123851 C179.293813,55.4501847 179.222143,55.2856267 179.126898,55.1182397 C179.030238,54.9503811 178.892084,54.816943 178.711024,54.7179253 C178.52902,54.6184361 178.313067,54.5689273 178.062222,54.5689273 C177.612399,54.5689273 177.28234,54.6849194 177.070631,54.9164322 C176.859864,55.1484165 176.731613,55.5506169 176.686348,56.1225619 M175.703244,56.5101454 C175.703244,54.630224 176.489255,53.6900275 178.062222,53.6900275 L178.072124,53.6900275 C178.787409,53.6900275 179.358411,53.9234263 179.785601,54.390224 C180.212792,54.8574931 180.426387,55.4831906 180.426387,56.2668448 C180.426387,56.5219332 180.416014,56.7671198 180.394796,57.0009902 L176.702379,57.0009902 C176.820729,57.9180825 177.32289,58.3768644 178.208862,58.3768644 C178.930277,58.3768644 179.545601,58.2424833 180.055306,57.974664 L180.055306,58.8653517 C179.50458,59.0978075 178.88124,59.2137996 178.187644,59.2137996 L178.156525,59.2137996 C177.842025,59.2137996 177.552517,59.174664 177.287526,59.0959214 C177.023008,59.0171788 176.76509,58.8870413 176.514246,58.7055088 C176.263401,58.5239764 176.065365,58.2448409 175.920139,57.8699882 C175.775385,57.4941925 175.703244,57.0410688 175.703244,56.5101454" id="Fill-55" fill="#FEFEFE"></path>
                <path d="M181.034025,54.610609 L181.034025,53.7736739 L181.964792,53.7736739 L181.964792,52.1889194 L182.943181,52.1889194 L182.943181,53.7736739 L184.365263,53.7736739 L184.365263,54.610609 L182.943181,54.610609 L182.943181,57.7004322 C182.943181,58.116778 183.205813,58.3242436 183.732493,58.3242436 L183.743338,58.3242436 C183.987581,58.3242436 184.194576,58.2723772 184.365263,58.1681729 L184.365263,59.0550884 C184.121491,59.1536346 183.876776,59.2031434 183.633004,59.2031434 L183.607071,59.2031434 C183.477876,59.2031434 183.340666,59.1875835 183.194025,59.1564637 C183.047857,59.1248723 182.871982,59.0631041 182.668289,58.9711591 C182.463652,58.8787426 182.296265,58.7188998 182.16377,58.4906876 C182.030332,58.262947 181.964792,57.9800393 181.964792,57.6429077 L181.964792,54.610609 L181.034025,54.610609 Z" id="Fill-56" fill="#FEFEFE"></path>
                <path d="M189.407526,59.1196857 L189.407526,54.2131238 C190.121868,53.8576031 190.861672,53.6793713 191.628352,53.6793713 C192.207369,53.6793713 192.684069,53.8137525 193.057035,54.0825147 C193.730356,53.8137525 194.383401,53.6793713 195.017585,53.6793713 C195.693263,53.6793713 196.219471,53.8557171 196.598096,54.2079371 C196.975778,54.5601572 197.165326,55.051945 197.165326,55.6828291 L197.165326,59.1196857 L196.186937,59.1196857 L196.186937,55.6149312 C196.186937,55.3084479 196.111495,55.0604322 195.961082,54.8722986 C195.811141,54.6836935 195.51786,54.5898625 195.080297,54.5898625 C194.608784,54.5898625 194.13067,54.6893517 193.645012,54.8878585 C193.72847,55.1146562 193.769963,55.3688016 193.769963,55.6517092 L193.769963,55.6828291 L193.769963,59.1196857 L192.792045,59.1196857 L192.792045,55.6253045 C192.792045,55.3117485 192.708587,55.0637328 192.542615,54.8826719 C192.376642,54.7011395 192.047998,54.610609 191.555267,54.610609 C191.173813,54.610609 190.784344,54.664833 190.385915,54.7728094 L190.385915,59.1196857 L189.407526,59.1196857 Z" id="Fill-57" fill="#FEFEFE"></path>
                <path d="M199.482434,56.1225619 L202.228525,56.1225619 C202.214851,55.9443301 202.184202,55.7745855 202.137051,55.6123851 C202.0899,55.4501847 202.01823,55.2856267 201.922513,55.1182397 C201.826324,54.9503811 201.688171,54.816943 201.50711,54.7179253 C201.325106,54.6184361 201.108682,54.5689273 200.858308,54.5689273 C200.408014,54.5689273 200.078426,54.6849194 199.866717,54.9164322 C199.655951,55.1484165 199.527699,55.5506169 199.482434,56.1225619 M198.498859,56.5101454 C198.498859,54.630224 199.285342,53.6900275 200.858308,53.6900275 L200.86821,53.6900275 C201.583495,53.6900275 202.154497,53.9234263 202.581688,54.390224 C203.008878,54.8574931 203.222473,55.4831906 203.222473,56.2668448 C203.222473,56.5219332 203.2121,56.7671198 203.190882,57.0009902 L199.497994,57.0009902 C199.616815,57.9180825 200.118976,58.3768644 201.004477,58.3768644 C201.726363,58.3768644 202.341688,58.2424833 202.850921,57.974664 L202.850921,58.8653517 C202.300666,59.0978075 201.677326,59.2137996 200.983731,59.2137996 L200.952611,59.2137996 C200.638112,59.2137996 200.348603,59.174664 200.083613,59.0959214 C199.819094,59.0171788 199.561177,58.8870413 199.310332,58.7055088 C199.059487,58.5239764 198.861452,58.2448409 198.716226,57.8699882 C198.571,57.4941925 198.498859,57.0410688 198.498859,56.5101454" id="Fill-58" fill="#FEFEFE"></path>
                <path d="M204.514843,59.1196857 L204.514843,54.2277407 C205.256532,53.8623183 206.016139,53.6793713 206.792721,53.6793713 C207.470285,53.6793713 208.000737,53.8557171 208.384548,54.2079371 C208.768831,54.5601572 208.961208,55.0486444 208.961208,55.6724558 L208.961208,59.1196857 L207.962073,59.1196857 L207.962073,55.5965422 C207.962073,55.2820432 207.881444,55.033556 207.720658,54.8520236 C207.560344,54.6700196 207.235943,54.5794892 206.750756,54.5794892 C206.314136,54.5794892 205.894961,54.6436149 205.493232,54.7732809 L205.493232,59.1196857 L204.514843,59.1196857 Z" id="Fill-59" fill="#FEFEFE"></path>
                <path d="M210.483346,56.8705697 L210.483346,53.7736739 L211.461263,53.7736739 L211.461263,56.9474263 C211.461263,57.432613 211.564996,57.7886051 211.77199,58.0154028 C211.978513,58.2422004 212.303385,58.355835 212.745192,58.355835 C213.187471,58.355835 213.509986,58.2431434 213.71368,58.0182318 C213.917373,57.7933202 214.018748,57.4359136 214.018748,56.9474263 L214.018748,53.7736739 L214.997137,53.7736739 L214.997137,56.8705697 C214.997137,57.6132024 214.800045,58.189391 214.40586,58.5991356 C214.012619,59.0088802 213.459063,59.2135167 212.745192,59.2135167 C212.031794,59.2135167 211.476352,59.0088802 211.079809,58.5991356 C210.681381,58.189391 210.483346,57.6132024 210.483346,56.8705697" id="Fill-60" fill="#FEFEFE"></path>
                <path d="M216.815594,59.1196385 L218.56315,59.1196385 L218.56315,53.7736267 L216.815594,53.7736267 L216.815594,59.1196385 Z M216.759982,52.9470648 L218.620447,52.9470648 L218.620447,51.9116228 L216.759982,51.9116228 L216.759982,52.9470648 Z" id="Fill-61" fill="#FEFEFE"></path>
                <path d="M219.192045,55.2835992 C219.192045,54.8413202 219.34953,54.465053 219.665444,54.1547976 C219.980886,53.8450138 220.462772,53.6898861 221.111574,53.6898861 C221.595346,53.6898861 222.071574,53.8068212 222.541672,54.0406916 L222.541672,54.887057 C222.078646,54.6748762 221.642025,54.5687859 221.232281,54.5687859 C220.523597,54.5687859 220.170434,54.7965265 220.170434,55.2520079 C220.170434,55.4014774 220.263794,55.5259568 220.45287,55.6249745 C220.641004,55.7244637 220.86733,55.811222 221.132792,55.885721 C221.397782,55.9606916 221.663244,56.051222 221.928705,56.1573124 C222.194638,56.2634028 222.422379,56.4416346 222.610984,56.6915363 C222.800532,56.9423811 222.895306,57.2516935 222.895306,57.6204165 C222.895306,58.0518507 222.733578,58.4234028 222.41012,58.7350727 C222.086662,59.0472141 221.585915,59.2032849 220.90788,59.2032849 C220.335935,59.2032849 219.821043,59.0778625 219.364147,58.8274892 L219.364147,57.933501 C219.828116,58.1942475 220.32179,58.3243851 220.845169,58.3243851 L220.866387,58.3243851 C221.207291,58.3243851 221.468037,58.2630884 221.648155,58.1395521 C221.82733,58.0160157 221.916917,57.8585305 221.916917,57.6670963 C221.916917,57.4478428 221.824029,57.2714971 221.63731,57.1380589 C221.451063,57.0036778 221.223794,56.8994735 220.95456,56.8249745 C220.686269,56.7500039 220.418921,56.6670177 220.152045,56.5746012 C219.885169,56.4821847 219.658371,56.3294145 219.472124,56.1153477 C219.284933,55.9017525 219.192045,55.6245029 219.192045,55.2835992" id="Fill-62" fill="#FEFEFE"></path>
                <path d="M224.238148,59.1196385 L225.985704,59.1196385 L225.985704,53.7736267 L224.238148,53.7736267 L224.238148,59.1196385 Z M224.182536,52.9470648 L226.043001,52.9470648 L226.043001,51.9116228 L224.182536,51.9116228 L224.182536,52.9470648 Z" id="Fill-63" fill="#FEFEFE"></path>
                <path d="M227.655794,56.1225619 L230.401884,56.1225619 C230.387739,55.9443301 230.35709,55.7745855 230.309939,55.6123851 C230.262788,55.4501847 230.191589,55.2856267 230.095872,55.1182397 C229.999684,54.9503811 229.86153,54.816943 229.679998,54.7179253 C229.497994,54.6184361 229.282041,54.5689273 229.031196,54.5689273 C228.581373,54.5689273 228.251314,54.6849194 228.040077,54.9164322 C227.82931,55.1484165 227.700587,55.5506169 227.655794,56.1225619 M226.672218,56.5101454 C226.672218,54.630224 227.458701,53.6900275 229.031196,53.6900275 L229.041098,53.6900275 C229.756855,53.6900275 230.327857,53.9234263 230.754576,54.390224 C231.182238,54.8574931 231.395361,55.4831906 231.395361,56.2668448 C231.395361,56.5219332 231.384988,56.7671198 231.364242,57.0009902 L227.671354,57.0009902 C227.789703,57.9180825 228.291864,58.3768644 229.177837,58.3768644 C229.899251,58.3768644 230.515047,58.2424833 231.024281,57.974664 L231.024281,58.8653517 C230.473554,59.0978075 229.850214,59.2137996 229.15709,59.2137996 L229.125499,59.2137996 C228.811471,59.2137996 228.521963,59.174664 228.256501,59.0959214 C227.991982,59.0171788 227.734065,58.8870413 227.48322,58.7055088 C227.232375,58.5239764 227.034811,58.2448409 226.889585,57.8699882 C226.744359,57.4941925 226.672218,57.0410688 226.672218,56.5101454" id="Fill-64" fill="#FEFEFE"></path>
                <path d="M232.656422,59.1196857 L232.656422,54.2234971 C233.549468,53.8679764 234.417051,53.6897446 235.261059,53.6897446 L235.261059,54.5898625 C234.729192,54.5964637 234.186953,54.6714342 233.63434,54.8147741 L233.63434,59.1196857 L232.656422,59.1196857 Z" id="Fill-65" fill="#FEFEFE"></path>
                <path d="M236.066591,55.2835992 C236.066591,54.8413202 236.224548,54.465053 236.53999,54.1547976 C236.855432,53.8450138 237.337318,53.6898861 237.986591,53.6898861 C238.470363,53.6898861 238.94612,53.8068212 239.416218,54.0406916 L239.416218,54.887057 C238.953664,54.6748762 238.516572,54.5687859 238.106827,54.5687859 C237.398615,54.5687859 237.04498,54.7965265 237.04498,55.2520079 C237.04498,55.4014774 237.13834,55.5259568 237.327416,55.6249745 C237.51555,55.7244637 237.741876,55.811222 238.007338,55.885721 C238.272328,55.9606916 238.53779,56.051222 238.803251,56.1573124 C239.069185,56.2634028 239.296925,56.4416346 239.48553,56.6915363 C239.675079,56.9423811 239.769853,57.2516935 239.769853,57.6204165 C239.769853,58.0518507 239.608124,58.4234028 239.284666,58.7350727 C238.961208,59.0472141 238.460462,59.2032849 237.782426,59.2032849 C237.210481,59.2032849 236.695589,59.0778625 236.238693,58.8274892 L236.238693,57.933501 C236.703134,58.1942475 237.196336,58.3243851 237.719715,58.3243851 L237.740933,58.3243851 C238.081837,58.3243851 238.342583,58.2630884 238.522701,58.1395521 C238.701876,58.0160157 238.791935,57.8585305 238.791935,57.6670963 C238.791935,57.4478428 238.698576,57.2714971 238.511857,57.1380589 C238.325609,57.0036778 238.09834,56.8994735 237.829106,56.8249745 C237.560815,56.7500039 237.293468,56.6670177 237.026591,56.5746012 C236.759715,56.4821847 236.532917,56.3294145 236.34667,56.1153477 C236.159479,55.9017525 236.066591,55.6245029 236.066591,55.2835992" id="Fill-66" fill="#FEFEFE"></path>
            </g>
        </g>
    </g>
</svg>